<svg width="19" height="19" viewBox="0 0 19 19" fill="none" xmlns="http://www.w3.org/2000/svg">
<g clip-path="url(#clip0_571_153)">
<path d="M13.9046 2.375V3.95833H12.3596V2.375H6.17977V3.95833H4.63481V2.375H3.08984V16.625H4.63481V15.0417H6.17977V16.625H12.3596V15.0417H13.9046V16.625H15.4496V2.375H13.9046ZM6.17977 13.4583H4.63481V11.875H6.17977V13.4583ZM6.17977 10.2917H4.63481V8.70833H6.17977V10.2917ZM6.17977 7.125H4.63481V5.54167H6.17977V7.125ZM13.9046 13.4583H12.3596V11.875H13.9046V13.4583ZM13.9046 10.2917H12.3596V8.70833H13.9046V10.2917ZM13.9046 7.125H12.3596V5.54167H13.9046V7.125Z" fill="#F9F9F9" fill-opacity="0.976471"/>
</g>
<defs>
<clipPath id="clip0_571_153">
<rect width="18.5396" height="19" fill="white"/>
</clipPath>
</defs>
</svg>
